<svg width="19" height="19" viewBox="0 0 19 19" fill="none" xmlns="http://www.w3.org/2000/svg">
<path d="M13.6072 0.75C14.0608 0.75 14.4286 1.08579 14.4286 1.5L14.4292 2.36986C15.119 2.47008 15.5657 2.63196 16.0144 2.85105C16.8176 3.24324 17.4479 3.81876 17.8774 4.5521C18.2677 5.21834 18.4922 5.87968 18.53 7.4993L18.5357 7.5V12.9813L18.5313 13.4388C18.4978 15.1036 18.2726 15.7732 17.8774 16.4479C17.4479 17.1812 16.8176 17.7568 16.0144 18.149C15.2112 18.5411 14.4145 18.75 12.2176 18.75H6.78244L6.28134 18.746C4.45797 18.7154 3.72456 18.5098 2.98564 18.149C2.18246 17.7568 1.55213 17.1812 1.12259 16.4479C0.710225 15.7439 0.482916 15.0454 0.465391 13.2159L0.464294 8.01874V7.5C0.507831 5.87968 0.732342 5.21834 1.12259 4.5521C1.55213 3.81876 2.18246 3.24324 2.98564 2.85105C3.4345 2.63187 3.88134 2.46995 4.57169 2.36974L4.57144 1.5C4.57144 1.08579 4.9392 0.75 5.39287 0.75C5.84653 0.75 6.2143 1.08579 6.2143 1.5L6.21353 2.25523C6.39217 2.25175 6.58144 2.25 6.78244 2.25H12.2176C12.4189 2.25 12.6084 2.25175 12.7873 2.25524L12.7857 1.5C12.7857 1.08579 13.1535 0.75 13.6072 0.75ZM16.892 9H2.10715L2.10791 13.1935L2.11518 13.6201C2.14711 14.7505 2.27793 15.2397 2.57128 15.7405C2.84771 16.2124 3.24353 16.5738 3.76041 16.8262C4.37346 17.1256 4.97061 17.2396 6.55002 17.2493H12.45L12.9173 17.2427C14.1553 17.2135 14.6911 17.0941 15.2396 16.8262C15.7565 16.5738 16.1523 16.2124 16.4287 15.7405C16.7566 15.1808 16.8814 14.6355 16.8921 13.1935L16.892 9ZM13.6449 12.75C14.0005 12.75 14.2804 12.8109 14.5146 12.9253C14.7489 13.0397 14.9327 13.2076 15.058 13.4214C15.1833 13.6353 15.25 13.8909 15.25 14.2155V14.2845C15.25 14.6091 15.1833 14.8647 15.058 15.0786C14.9327 15.2924 14.7489 15.4603 14.5146 15.5747C14.2804 15.6891 14.0005 15.75 13.6449 15.75H13.5694C13.2139 15.75 12.9339 15.6891 12.6997 15.5747C12.4654 15.4603 12.2816 15.2924 12.1563 15.0786C12.031 14.8647 11.9643 14.6091 11.9643 14.2845V14.2155C11.9643 13.8909 12.031 13.6353 12.1563 13.4214C12.2816 13.2076 12.4654 13.0397 12.6997 12.9253C12.9339 12.8109 13.2139 12.75 13.5694 12.75H13.6449ZM12.45 3.75069H6.55002L6.2143 3.7545V4.5C6.2143 4.91421 5.84653 5.25 5.39287 5.25C4.9392 5.25 4.57144 4.91421 4.57144 4.5L4.57082 3.89438C4.25811 3.96032 4.01058 4.05161 3.76041 4.17377C3.24353 4.42616 2.84771 4.78756 2.57128 5.2595C2.26783 5.77756 2.13829 6.28319 2.11223 7.49898L16.8871 7.5L16.8848 7.37989C16.8529 6.24951 16.7221 5.76032 16.4287 5.2595C16.1523 4.78756 15.7565 4.42616 15.2396 4.17377C14.9895 4.05164 14.742 3.96036 14.4294 3.89443L14.4286 4.5C14.4286 4.91421 14.0608 5.25 13.6072 5.25C13.1535 5.25 12.7857 4.91421 12.7857 4.5L12.7877 3.75465C12.6803 3.75273 12.5679 3.75142 12.45 3.75069Z" fill="#2688EB"/>
</svg>
