<svg width="29" height="29" viewBox="0 0 29 29" fill="none" xmlns="http://www.w3.org/2000/svg">
<path d="M12.5 3.5C12.5 4.05228 12.0523 4.5 11.5 4.5C7.63401 4.5 4.5 7.63401 4.5 11.5C4.5 12.0523 4.05228 12.5 3.5 12.5C2.94771 12.5 2.5 12.0523 2.5 11.5C2.5 6.52944 6.52944 2.5 11.5 2.5C12.0523 2.5 12.5 2.94771 12.5 3.5Z" fill="#2688EB"/>
<path d="M12.5 25.5C12.5 24.9477 12.0523 24.5 11.5 24.5C7.63401 24.5 4.5 21.366 4.5 17.5C4.5 16.9477 4.05228 16.5 3.5 16.5C2.94772 16.5 2.5 16.9477 2.5 17.5C2.5 22.4706 6.52944 26.5 11.5 26.5C12.0523 26.5 12.5 26.0523 12.5 25.5Z" fill="#2688EB"/>
<path d="M10.25 11.5C11.2165 11.5 12 12.2835 12 13.25C12 14.2165 11.2165 15 10.25 15C9.2835 15 8.5 14.2165 8.5 13.25C8.5 12.2835 9.2835 11.5 10.25 11.5ZM17.3952 12.3781C18.4284 11.8223 19.6195 11.8223 20.669 12.7632C21.0795 13.1313 21.1128 13.7612 20.7433 14.1702C20.3738 14.5792 19.7415 14.6123 19.331 14.2442L19.2306 14.162C18.9329 13.9418 18.6657 13.959 18.3455 14.1313C18.2487 14.1833 18.1835 14.2312 18.169 14.2442L18.0705 14.3221C17.6627 14.605 17.0977 14.5477 16.7567 14.1702C16.3872 13.7612 16.4205 13.1313 16.831 12.7632C16.9554 12.6518 17.1448 12.5128 17.3952 12.3781Z" fill="#2688EB"/>
<path d="M16.5 17C17.0523 17 17.4994 17.4495 17.4212 17.9963C17.3842 18.2554 17.3342 18.497 17.2716 18.6481C17.1209 19.012 16.8999 19.3427 16.6213 19.6213C16.3427 19.8999 16.012 20.1209 15.6481 20.2716C15.2841 20.4224 14.894 20.5 14.5 20.5C14.106 20.5 13.7159 20.4224 13.3519 20.2716C12.988 20.1209 12.6573 19.8999 12.3787 19.6213C12.1001 19.3427 11.8791 19.012 11.7284 18.6481C11.6658 18.497 11.6158 18.2554 11.5788 17.9963C11.5006 17.4495 11.9477 17 12.5 17H16.5Z" fill="#2688EB"/>
<path d="M16.5 3.5C16.5 4.05228 16.9477 4.5 17.5 4.5C21.366 4.5 24.5 7.63401 24.5 11.5C24.5 12.0523 24.9477 12.5 25.5 12.5C26.0523 12.5 26.5 12.0523 26.5 11.5C26.5 6.52944 22.4706 2.5 17.5 2.5C16.9477 2.5 16.5 2.94771 16.5 3.5Z" fill="#2688EB"/>
<path d="M16.5 25.5C16.5 24.9477 16.9477 24.5 17.5 24.5C21.366 24.5 24.5 21.366 24.5 17.5C24.5 16.9477 24.9477 16.5 25.5 16.5C26.0523 16.5 26.5 16.9477 26.5 17.5C26.5 22.4706 22.4706 26.5 17.5 26.5C16.9477 26.5 16.5 26.0523 16.5 25.5Z" fill="#2688EB"/>
</svg>
